<svg width="25" height="25" viewBox="0 0 25 25" fill="none" xmlns="http://www.w3.org/2000/svg">
<path d="M6.875 7.1875C3.375 10.6875 0.5 14 0.5 14.5C0.5 15.75 9.3125 24.5 10.5 24.5C11.0625 24.5 14.3125 21.625 17.875 18.0625L24.25 11.6875V6.1875V0.75H18.75H13.3125L6.875 7.1875ZM21.75 6.875V10.4375L16.125 16.0625L10.5 21.625L7.0625 18.25C5.1875 16.375 3.625 14.625 3.625 14.375C3.625 14.125 5.9375 11.5625 8.8125 8.625L13.9375 3.3125L17.875 3.25H21.75V6.875Z" fill="black"/>
<path d="M17 6.4375C16.375 7.5 17.8125 8.6875 18.6875 7.8125C19.4375 7.0625 18.9375 5.75 18 5.75C17.6875 5.75 17.25 6.0625 17 6.4375Z" fill="black"/>
</svg>
