<svg width="24" height="26" viewBox="0 0 24 26" fill="none" xmlns="http://www.w3.org/2000/svg">
<path d="M10.5083 0.5C9.86206 0.5 9.24462 0.755391 8.78712 1.21289L8.25001 1.75H2.00001C1.83437 1.74766 1.66992 1.77826 1.51621 1.84003C1.3625 1.90179 1.2226 1.99349 1.10463 2.1098C0.986671 2.22611 0.893001 2.3647 0.829067 2.51752C0.765132 2.67034 0.732208 2.83434 0.732208 3C0.732208 3.16566 0.765132 3.32966 0.829067 3.48248C0.893001 3.6353 0.986671 3.77389 1.10463 3.8902C1.2226 4.00651 1.3625 4.09821 1.51621 4.15997C1.66992 4.22174 1.83437 4.25234 2.00001 4.25H22C22.1657 4.25234 22.3301 4.22174 22.4838 4.15997C22.6375 4.09821 22.7774 4.00651 22.8954 3.8902C23.0134 3.77389 23.107 3.6353 23.171 3.48248C23.2349 3.32966 23.2678 3.16566 23.2678 3C23.2678 2.83434 23.2349 2.67034 23.171 2.51752C23.107 2.3647 23.0134 2.22611 22.8954 2.1098C22.7774 1.99349 22.6375 1.90179 22.4838 1.84003C22.3301 1.77826 22.1657 1.74766 22 1.75H15.75L15.2129 1.21289C14.7566 0.755391 14.138 0.5 13.4917 0.5H10.5083ZM2.45655 6.75L4.36573 23.3296C4.53073 24.5671 5.59626 25.5 6.84376 25.5H17.1538C18.4013 25.5 19.468 24.5686 19.6343 23.3198L21.5435 6.75H2.45655Z" fill="black"/>
</svg>
