<svg width="28" height="28" viewBox="0 0 28 28" fill="none" xmlns="http://www.w3.org/2000/svg">
<path d="M24.875 0.199997C24.1274 0.199997 23.382 0.492966 22.8125 1.0625L22.325 1.55L26.45 5.675C26.4477 5.67734 26.9375 5.1875 26.9375 5.1875C28.0789 4.04609 28.0766 2.20156 26.9375 1.0625C26.3656 0.492966 25.6227 0.199997 24.875 0.199997ZM21.4063 2.61875C21.2703 2.6375 21.1438 2.70547 21.05 2.80625L1.58751 22.2875C1.51016 22.3578 1.45157 22.4492 1.41876 22.55L0.218757 27.05C0.16485 27.2562 0.225788 27.4742 0.375788 27.6242C0.525788 27.7742 0.743757 27.8352 0.950007 27.7812L5.45001 26.5812C5.55079 26.5484 5.64219 26.4898 5.71251 26.4125L25.1938 6.95C25.4328 6.71797 25.4352 6.33594 25.2031 6.09687C24.9711 5.85781 24.5891 5.85547 24.35 6.0875L4.98126 25.4562L2.54376 23.0187L21.9125 3.65C22.093 3.47656 22.1469 3.20703 22.0461 2.97734C21.9453 2.74765 21.7133 2.60468 21.4625 2.61875C21.4438 2.61875 21.425 2.61875 21.4063 2.61875Z" fill="black"/>
</svg>
