<svg width="150" height="150" viewBox="0 0 150 150" fill="none" xmlns="http://www.w3.org/2000/svg">
<circle cx="75" cy="75" r="74.5" fill="white" stroke="black"/>
<path d="M24 43.5C24 38.2533 28.2533 34 33.5 34V34C38.7467 34 43 38.2533 43 43.5V107.5C43 112.747 38.7467 117 33.5 117V117C28.2533 117 24 112.747 24 107.5V43.5Z" fill="#575353"/>
<path d="M107 43.5C107 38.2533 111.253 34 116.5 34V34C121.747 34 126 38.2533 126 43.5V107.5C126 112.747 121.747 117 116.5 117V117C111.253 117 107 112.747 107 107.5V43.5Z" fill="#BABABA"/>
<path d="M108.85 37.9193C111.94 33.679 117.882 32.7463 122.122 35.8361V35.8361C126.363 38.926 127.295 44.8683 124.205 49.1087L82.8206 105.903C79.7307 110.143 73.7884 111.076 69.548 107.986V107.986C65.3077 104.896 64.375 98.954 67.4649 94.7136L108.85 37.9193Z" fill="#919191"/>
<path d="M25.6954 48.633C22.6056 44.3926 23.5383 38.4503 27.7787 35.3605V35.3605C32.0191 32.2706 37.9614 33.2033 41.0513 37.4437L82.713 94.6191C85.8028 98.8595 84.8701 104.802 80.6297 107.892V107.892C76.3893 110.981 70.447 110.049 67.3572 105.808L25.6954 48.633Z" fill="#3B3434"/>
</svg>
