<svg width="60" height="60" viewBox="0 0 60 60" fill="none" xmlns="http://www.w3.org/2000/svg">
<path d="M55 30C55 43.8063 43.8063 55 30 55C16.1938 55 5 43.8063 5 30C5 16.1938 16.1938 5 30 5C43.8063 5 55 16.1938 55 30Z" fill="url(#paint0_linear_5_277)"/>
<path opacity="0.05" d="M12.6487 29.3325C22.8425 24.7137 34.815 19.7025 36.6587 18.9775C40.7237 17.3787 42.4962 19.0125 42.2187 21.6187C41.8775 24.8125 40.26 34.1062 39.265 40.765C38.6825 44.6612 36.5725 45.855 34.1912 44.3437C32.385 43.1975 26.175 39.1312 24.5412 37.7412C23.4275 36.7937 22.6512 35.7312 23.4412 34.6487C23.6725 34.3325 24.2637 33.695 24.5925 33.3775C26.2412 31.78 26.0187 31.4362 24.025 32.8625C23.7875 33.0325 22.41 34.0312 21.8437 34.4087C20.4562 35.3337 19.18 35.3837 17.0162 34.6487C15.2462 34.0475 13.5462 33.5837 12.4737 33.12C10.9925 32.4787 10.425 30.34 12.6487 29.3325Z" fill="url(#paint1_linear_5_277)"/>
<path opacity="0.07" d="M13.545 29.4888C23.01 25.2575 34.65 20.4088 36.3525 19.7225C40.4325 18.075 41.9337 19.0525 41.495 22.2363C41.0875 25.1838 39.6412 34.3038 38.6275 40.4175C38.03 44.0163 36.285 44.8088 34.0125 43.3388C32.5887 42.4213 26.8587 38.6463 25.4687 37.5475C24.3937 36.6988 23.28 35.7188 24.5812 34.3C25.0162 33.8263 27.4187 31.5075 29.215 29.7825C30.2562 28.7813 29.885 28.2875 28.6287 29.1475C26.325 30.7263 22.5562 33.225 21.8837 33.6788C20.6025 34.5413 19.3987 34.7488 17.3037 34.09C15.6525 33.57 14.0575 33.0663 13.2262 32.7425C11.3687 32.0225 11.3437 30.4725 13.545 29.4888Z" fill="url(#paint2_linear_5_277)"/>
<path d="M14.4413 29.6463C23.1788 25.8025 34.485 21.1163 36.0463 20.4675C40.14 18.77 41.3963 19.095 40.77 22.855C40.32 25.5575 39.0225 34.5038 37.9875 40.0725C37.3738 43.375 35.9963 43.7663 33.8313 42.3375C32.79 41.65 27.5338 38.1738 26.3925 37.3575C25.3513 36.6138 23.915 35.7188 25.7163 33.9563C26.3575 33.3288 30.5588 29.3163 33.8325 26.1938C34.2613 25.7838 33.7225 25.11 33.2275 25.4388C28.815 28.365 22.6975 32.4263 21.9188 32.955C20.7425 33.7538 19.6125 34.12 17.585 33.5375C16.0525 33.0975 14.5563 32.5725 13.9738 32.3725C11.73 31.6025 12.2625 30.605 14.4413 29.6463Z" fill="white"/>
<defs>
<linearGradient id="paint0_linear_5_277" x1="12.3225" y1="12.3225" x2="47.6775" y2="47.6775" gradientUnits="userSpaceOnUse">
<stop stop-color="#33BEF0"/>
<stop offset="1" stop-color="#0A85D9"/>
</linearGradient>
<linearGradient id="paint1_linear_5_277" x1="12.3225" y1="12.3225" x2="47.6775" y2="47.6775" gradientUnits="userSpaceOnUse">
<stop stop-color="#33BEF0"/>
<stop offset="1" stop-color="#0A85D9"/>
</linearGradient>
<linearGradient id="paint2_linear_5_277" x1="12.3225" y1="12.3225" x2="47.6775" y2="47.6775" gradientUnits="userSpaceOnUse">
<stop stop-color="#33BEF0"/>
<stop offset="1" stop-color="#0A85D9"/>
</linearGradient>
</defs>
</svg>
