<svg width="60" height="60" viewBox="0 0 60 60" fill="none" xmlns="http://www.w3.org/2000/svg">
<path d="M52.5 46.25C52.5 49.7025 49.7025 52.5 46.25 52.5H13.75C10.2988 52.5 7.5 49.7025 7.5 46.25V13.75C7.5 10.2975 10.2988 7.5 13.75 7.5H46.25C49.7025 7.5 52.5 10.2975 52.5 13.75V46.25Z" fill="#1976D2"/>
<path d="M44.9212 22.5513C44.9788 22.3625 45.0063 22.1875 44.9988 22.0312C44.98 21.5788 44.6687 21.25 43.9362 21.25H40.6637C39.8375 21.25 39.4562 21.75 39.2337 22.2513C39.2337 22.2513 37.1938 26.45 34.8425 29.2188C34.08 30.02 33.6925 30 33.28 30C33.0588 30 32.5 29.7325 32.5 28.9987V22.5175C32.5 21.65 32.2837 21.25 31.585 21.25H25.7737C25.265 21.25 25 21.65 25 22.0513C25 22.885 26.1225 23.085 26.25 25.4212V29.95C26.25 31.05 26.0588 31.25 25.6462 31.25C24.5338 31.25 22.3437 27.5 20.8775 22.585C20.56 21.6175 20.2425 21.25 19.4163 21.25H16.1125C15.1588 21.25 15 21.7175 15 22.2175C15 23.1188 15.75 27.9913 19.8438 33.5938C22.8125 37.6562 26.7238 40 30.1863 40C32.2838 40 32.4988 39.4662 32.4988 38.6325V34.9175C32.5 33.9163 32.7287 33.75 33.3962 33.75C33.8725 33.75 34.8438 34.0625 36.7188 36.25C38.8813 38.7725 39.2737 40 40.5137 40H43.7862C44.5462 40 44.9825 39.6812 45 39.0625C45.0037 38.905 44.9813 38.7288 44.93 38.5325C44.6875 37.8125 43.575 36.0525 42.1875 34.375C41.4188 33.4462 40.66 32.5263 40.3113 32.0263C40.0775 31.7 39.9888 31.47 40 31.25C40.0112 31.0188 40.1313 30.7987 40.3113 30.4912C40.2788 30.4912 44.5088 24.5525 44.9212 22.5513Z" fill="white"/>
</svg>
